# xmcd
#
# Track frame offsets:
#	150
#	23217
#	38325
#	56458
#	71824
#	87759
#	101430
#	127149
#	144671
#	159260
#	174662
#	188394
#	199002
#	220989
#	236430
#	253194
#
# Disc length: 3576
#
# Revision: 1
# Processed by: cddbd v1.5.1PL0 Copyright (c) Steve Scherf et al.
# Submitted via: ExactAudioCopy v0.90a11
# Normalized: r0:TDELIM( - )
#
DISCID=d70df610
DTITLE=Various Artist - The American Folk Blues Festival
DYEAR=1900
DGENRE=
TTITLE0=Otis Rush - I Can't Quit You Baby
TTITLE1=Lonnie Johnson - Another Night to Cry
TTITLE2=Sippie Wallace - Women Be Wise
TTITLE3=Eddie Boyd - Five Long Years
TTITLE4=Junior Wells - Hoodoo Man Blues
TTITLE5=Mississippi Fred McDowell - Going Down to the River
TTITLE6=Sonny Boy Williamson - Nine Below Zero
TTITLE7=Muddy Waters - Got My Mojo Workin'
TTITLE8=Lightnin' Hopkins - Mojo Hand
TTITLE9=Sonny Boy Williamson - Back in My Younger Days
TTITLE10=Victoria Spivey - Black Snake Blues
TTITLE11=Memphis Slim - Everyday I Have the Blues
TTITLE12=T-Bone Walker - Don't Throw Your Love on Me so Strong
TTITLE13=Willie Dixon - Sittin' and Cryin' the Blues
TTITLE14=Howlin' Wolf - Shake for Me
TTITLE15=Howlin' Wolf - Love Me Darlin'
EXTD=
EXTT0=
EXTT1=
EXTT2=
EXTT3=
EXTT4=
EXTT5=
EXTT6=
EXTT7=
EXTT8=
EXTT9=
EXTT10=
EXTT11=
EXTT12=
EXTT13=
EXTT14=
EXTT15=
PLAYORDER=
